<mxfile host="app.diagrams.net" modified="2024-06-14T07:58:35.855Z" agent="Mozilla/5.0 (Windows NT 10.0; Win64; x64) AppleWebKit/537.36 (KHTML, like Gecko) Chrome/125.0.0.0 Safari/537.36" etag="IQ2JhS7u2tASdf-rB1aL" version="24.5.3" type="device">
  <diagram name="Page-1" id="NtiBA7_avootSpoUHzHF">
    <mxGraphModel dx="1050" dy="565" grid="1" gridSize="10" guides="1" tooltips="1" connect="1" arrows="1" fold="1" page="1" pageScale="1" pageWidth="1169" pageHeight="827" math="0" shadow="0">
      <root>
        <mxCell id="0" />
        <mxCell id="1" parent="0" />
        <mxCell id="pdLwFarlRDrP1ghK5O_m-6" style="edgeStyle=orthogonalEdgeStyle;rounded=0;orthogonalLoop=1;jettySize=auto;html=1;entryX=0;entryY=0.5;entryDx=0;entryDy=0;" edge="1" parent="1" source="pdLwFarlRDrP1ghK5O_m-1" target="pdLwFarlRDrP1ghK5O_m-3">
          <mxGeometry relative="1" as="geometry" />
        </mxCell>
        <mxCell id="pdLwFarlRDrP1ghK5O_m-1" value="П" style="ellipse;fillColor=strokeColor;html=1;" vertex="1" parent="1">
          <mxGeometry x="320" y="100" width="30" height="30" as="geometry" />
        </mxCell>
        <mxCell id="pdLwFarlRDrP1ghK5O_m-2" value="" style="ellipse;html=1;shape=endState;fillColor=strokeColor;" vertex="1" parent="1">
          <mxGeometry x="805" y="655" width="30" height="30" as="geometry" />
        </mxCell>
        <mxCell id="pdLwFarlRDrP1ghK5O_m-7" style="edgeStyle=orthogonalEdgeStyle;rounded=0;orthogonalLoop=1;jettySize=auto;html=1;entryX=1;entryY=0.5;entryDx=0;entryDy=0;" edge="1" parent="1" source="pdLwFarlRDrP1ghK5O_m-3" target="pdLwFarlRDrP1ghK5O_m-4">
          <mxGeometry relative="1" as="geometry" />
        </mxCell>
        <mxCell id="pdLwFarlRDrP1ghK5O_m-3" value="Введення реєстраційних даних" style="html=1;align=center;verticalAlign=top;rounded=1;absoluteArcSize=1;arcSize=10;dashed=0;whiteSpace=wrap;" vertex="1" parent="1">
          <mxGeometry x="480" y="95" width="140" height="40" as="geometry" />
        </mxCell>
        <mxCell id="pdLwFarlRDrP1ghK5O_m-20" style="edgeStyle=orthogonalEdgeStyle;rounded=0;orthogonalLoop=1;jettySize=auto;html=1;entryX=0;entryY=0.5;entryDx=0;entryDy=0;exitX=0.5;exitY=1;exitDx=0;exitDy=0;" edge="1" parent="1" source="pdLwFarlRDrP1ghK5O_m-4" target="pdLwFarlRDrP1ghK5O_m-10">
          <mxGeometry relative="1" as="geometry" />
        </mxCell>
        <mxCell id="pdLwFarlRDrP1ghK5O_m-4" value="Вхід в систему" style="html=1;align=center;verticalAlign=top;rounded=1;absoluteArcSize=1;arcSize=10;dashed=0;whiteSpace=wrap;" vertex="1" parent="1">
          <mxGeometry x="350" y="150" width="140" height="40" as="geometry" />
        </mxCell>
        <mxCell id="pdLwFarlRDrP1ghK5O_m-12" style="edgeStyle=orthogonalEdgeStyle;rounded=0;orthogonalLoop=1;jettySize=auto;html=1;entryX=0.5;entryY=0;entryDx=0;entryDy=0;" edge="1" parent="1" source="pdLwFarlRDrP1ghK5O_m-10" target="pdLwFarlRDrP1ghK5O_m-11">
          <mxGeometry relative="1" as="geometry" />
        </mxCell>
        <mxCell id="pdLwFarlRDrP1ghK5O_m-29" value="Перехід на сторінку" style="edgeLabel;html=1;align=center;verticalAlign=middle;resizable=0;points=[];" vertex="1" connectable="0" parent="pdLwFarlRDrP1ghK5O_m-12">
          <mxGeometry x="-0.2948" relative="1" as="geometry">
            <mxPoint x="-34" y="-10" as="offset" />
          </mxGeometry>
        </mxCell>
        <mxCell id="pdLwFarlRDrP1ghK5O_m-10" value="Переадресація на сторінку профілю" style="html=1;align=center;verticalAlign=top;rounded=1;absoluteArcSize=1;arcSize=10;dashed=0;whiteSpace=wrap;" vertex="1" parent="1">
          <mxGeometry x="565" y="190" width="140" height="40" as="geometry" />
        </mxCell>
        <mxCell id="pdLwFarlRDrP1ghK5O_m-18" style="edgeStyle=orthogonalEdgeStyle;rounded=0;orthogonalLoop=1;jettySize=auto;html=1;entryX=0.5;entryY=0;entryDx=0;entryDy=0;" edge="1" parent="1" source="pdLwFarlRDrP1ghK5O_m-11" target="pdLwFarlRDrP1ghK5O_m-16">
          <mxGeometry relative="1" as="geometry" />
        </mxCell>
        <mxCell id="pdLwFarlRDrP1ghK5O_m-19" style="edgeStyle=orthogonalEdgeStyle;rounded=0;orthogonalLoop=1;jettySize=auto;html=1;entryX=0.5;entryY=0;entryDx=0;entryDy=0;" edge="1" parent="1" source="pdLwFarlRDrP1ghK5O_m-11" target="pdLwFarlRDrP1ghK5O_m-15">
          <mxGeometry relative="1" as="geometry" />
        </mxCell>
        <mxCell id="pdLwFarlRDrP1ghK5O_m-11" value="" style="rhombus;" vertex="1" parent="1">
          <mxGeometry x="535" y="280" width="30" height="30" as="geometry" />
        </mxCell>
        <mxCell id="pdLwFarlRDrP1ghK5O_m-34" style="edgeStyle=orthogonalEdgeStyle;rounded=0;orthogonalLoop=1;jettySize=auto;html=1;entryX=0.5;entryY=0;entryDx=0;entryDy=0;" edge="1" parent="1" source="pdLwFarlRDrP1ghK5O_m-13" target="pdLwFarlRDrP1ghK5O_m-30">
          <mxGeometry relative="1" as="geometry" />
        </mxCell>
        <mxCell id="pdLwFarlRDrP1ghK5O_m-13" value="Перегляд інформації теми" style="html=1;align=center;verticalAlign=top;rounded=1;absoluteArcSize=1;arcSize=10;dashed=0;whiteSpace=wrap;" vertex="1" parent="1">
          <mxGeometry x="410" y="465" width="140" height="40" as="geometry" />
        </mxCell>
        <mxCell id="pdLwFarlRDrP1ghK5O_m-40" style="edgeStyle=orthogonalEdgeStyle;rounded=0;orthogonalLoop=1;jettySize=auto;html=1;" edge="1" parent="1" source="pdLwFarlRDrP1ghK5O_m-14">
          <mxGeometry relative="1" as="geometry">
            <mxPoint x="820" y="620" as="targetPoint" />
          </mxGeometry>
        </mxCell>
        <mxCell id="pdLwFarlRDrP1ghK5O_m-14" value="Редагування теми та тестування" style="html=1;align=center;verticalAlign=top;rounded=1;absoluteArcSize=1;arcSize=10;dashed=0;whiteSpace=wrap;" vertex="1" parent="1">
          <mxGeometry x="750" y="540" width="140" height="40" as="geometry" />
        </mxCell>
        <mxCell id="pdLwFarlRDrP1ghK5O_m-23" style="edgeStyle=orthogonalEdgeStyle;rounded=0;orthogonalLoop=1;jettySize=auto;html=1;entryX=0.5;entryY=0;entryDx=0;entryDy=0;" edge="1" parent="1" source="pdLwFarlRDrP1ghK5O_m-15" target="pdLwFarlRDrP1ghK5O_m-21">
          <mxGeometry relative="1" as="geometry" />
        </mxCell>
        <mxCell id="pdLwFarlRDrP1ghK5O_m-15" value="Перегляд створених тем" style="html=1;align=center;verticalAlign=top;rounded=1;absoluteArcSize=1;arcSize=10;dashed=0;whiteSpace=wrap;" vertex="1" parent="1">
          <mxGeometry x="580" y="330" width="140" height="40" as="geometry" />
        </mxCell>
        <mxCell id="pdLwFarlRDrP1ghK5O_m-16" value="Налаштування профілю" style="html=1;align=center;verticalAlign=top;rounded=1;absoluteArcSize=1;arcSize=10;dashed=0;whiteSpace=wrap;" vertex="1" parent="1">
          <mxGeometry x="380" y="330" width="140" height="40" as="geometry" />
        </mxCell>
        <mxCell id="pdLwFarlRDrP1ghK5O_m-28" style="edgeStyle=orthogonalEdgeStyle;rounded=0;orthogonalLoop=1;jettySize=auto;html=1;entryX=0.5;entryY=0;entryDx=0;entryDy=0;" edge="1" parent="1" source="pdLwFarlRDrP1ghK5O_m-17" target="pdLwFarlRDrP1ghK5O_m-14">
          <mxGeometry relative="1" as="geometry" />
        </mxCell>
        <mxCell id="pdLwFarlRDrP1ghK5O_m-17" value="Перегляд створених користувачем тем" style="html=1;align=center;verticalAlign=top;rounded=1;absoluteArcSize=1;arcSize=10;dashed=0;whiteSpace=wrap;" vertex="1" parent="1">
          <mxGeometry x="750" y="465" width="140" height="40" as="geometry" />
        </mxCell>
        <mxCell id="pdLwFarlRDrP1ghK5O_m-24" value="" style="edgeStyle=orthogonalEdgeStyle;rounded=0;orthogonalLoop=1;jettySize=auto;html=1;" edge="1" parent="1" source="pdLwFarlRDrP1ghK5O_m-21" target="pdLwFarlRDrP1ghK5O_m-13">
          <mxGeometry relative="1" as="geometry" />
        </mxCell>
        <mxCell id="pdLwFarlRDrP1ghK5O_m-25" style="edgeStyle=orthogonalEdgeStyle;rounded=0;orthogonalLoop=1;jettySize=auto;html=1;entryX=0.5;entryY=0;entryDx=0;entryDy=0;" edge="1" parent="1" source="pdLwFarlRDrP1ghK5O_m-21" target="pdLwFarlRDrP1ghK5O_m-17">
          <mxGeometry relative="1" as="geometry" />
        </mxCell>
        <mxCell id="pdLwFarlRDrP1ghK5O_m-33" style="edgeStyle=orthogonalEdgeStyle;rounded=0;orthogonalLoop=1;jettySize=auto;html=1;entryX=0.5;entryY=0;entryDx=0;entryDy=0;" edge="1" parent="1" source="pdLwFarlRDrP1ghK5O_m-21" target="pdLwFarlRDrP1ghK5O_m-26">
          <mxGeometry relative="1" as="geometry" />
        </mxCell>
        <mxCell id="pdLwFarlRDrP1ghK5O_m-21" value="" style="rhombus;" vertex="1" parent="1">
          <mxGeometry x="635" y="414" width="30" height="30" as="geometry" />
        </mxCell>
        <mxCell id="pdLwFarlRDrP1ghK5O_m-39" style="edgeStyle=orthogonalEdgeStyle;rounded=0;orthogonalLoop=1;jettySize=auto;html=1;entryX=0.5;entryY=0;entryDx=0;entryDy=0;exitX=0.5;exitY=1;exitDx=0;exitDy=0;" edge="1" parent="1" source="pdLwFarlRDrP1ghK5O_m-26" target="pdLwFarlRDrP1ghK5O_m-2">
          <mxGeometry relative="1" as="geometry">
            <Array as="points">
              <mxPoint x="650" y="620" />
              <mxPoint x="820" y="620" />
            </Array>
          </mxGeometry>
        </mxCell>
        <mxCell id="pdLwFarlRDrP1ghK5O_m-26" value="Створення теми та тестування" style="html=1;align=center;verticalAlign=top;rounded=1;absoluteArcSize=1;arcSize=10;dashed=0;whiteSpace=wrap;" vertex="1" parent="1">
          <mxGeometry x="580" y="465" width="140" height="40" as="geometry" />
        </mxCell>
        <mxCell id="pdLwFarlRDrP1ghK5O_m-35" style="edgeStyle=orthogonalEdgeStyle;rounded=0;orthogonalLoop=1;jettySize=auto;html=1;entryX=0.5;entryY=0;entryDx=0;entryDy=0;" edge="1" parent="1" source="pdLwFarlRDrP1ghK5O_m-30" target="pdLwFarlRDrP1ghK5O_m-31">
          <mxGeometry relative="1" as="geometry" />
        </mxCell>
        <mxCell id="pdLwFarlRDrP1ghK5O_m-30" value="Проходження тестування" style="html=1;align=center;verticalAlign=top;rounded=1;absoluteArcSize=1;arcSize=10;dashed=0;whiteSpace=wrap;" vertex="1" parent="1">
          <mxGeometry x="410" y="540" width="140" height="40" as="geometry" />
        </mxCell>
        <mxCell id="pdLwFarlRDrP1ghK5O_m-36" style="edgeStyle=orthogonalEdgeStyle;rounded=0;orthogonalLoop=1;jettySize=auto;html=1;entryX=0;entryY=0.5;entryDx=0;entryDy=0;exitX=0.5;exitY=1;exitDx=0;exitDy=0;" edge="1" parent="1" source="pdLwFarlRDrP1ghK5O_m-31" target="pdLwFarlRDrP1ghK5O_m-32">
          <mxGeometry relative="1" as="geometry" />
        </mxCell>
        <mxCell id="pdLwFarlRDrP1ghK5O_m-37" value="Переадресація &lt;br&gt;користувача" style="edgeLabel;html=1;align=center;verticalAlign=middle;resizable=0;points=[];" vertex="1" connectable="0" parent="pdLwFarlRDrP1ghK5O_m-36">
          <mxGeometry x="-0.1776" y="2" relative="1" as="geometry">
            <mxPoint x="-81" y="2" as="offset" />
          </mxGeometry>
        </mxCell>
        <mxCell id="pdLwFarlRDrP1ghK5O_m-31" value="Отримання результату" style="html=1;align=center;verticalAlign=top;rounded=1;absoluteArcSize=1;arcSize=10;dashed=0;whiteSpace=wrap;" vertex="1" parent="1">
          <mxGeometry x="410" y="610" width="140" height="40" as="geometry" />
        </mxCell>
        <mxCell id="pdLwFarlRDrP1ghK5O_m-38" style="edgeStyle=orthogonalEdgeStyle;rounded=0;orthogonalLoop=1;jettySize=auto;html=1;entryX=0;entryY=0.5;entryDx=0;entryDy=0;" edge="1" parent="1" source="pdLwFarlRDrP1ghK5O_m-32" target="pdLwFarlRDrP1ghK5O_m-2">
          <mxGeometry relative="1" as="geometry" />
        </mxCell>
        <mxCell id="pdLwFarlRDrP1ghK5O_m-32" value="Перегляд сторінки профілю" style="html=1;align=center;verticalAlign=top;rounded=1;absoluteArcSize=1;arcSize=10;dashed=0;whiteSpace=wrap;" vertex="1" parent="1">
          <mxGeometry x="585" y="650" width="140" height="40" as="geometry" />
        </mxCell>
      </root>
    </mxGraphModel>
  </diagram>
</mxfile>
